<svg width="24" height="24" viewBox="0 0 24 24" fill="none" xmlns="http://www.w3.org/2000/svg">
<path d="M7.096 12.8518L12.5977 18.3533C12.7677 18.5236 12.8537 18.7236 12.8555 18.9533C12.8575 19.1829 12.7736 19.3836 12.6037 19.5553C12.4337 19.7274 12.2332 19.8125 12.002 19.8105C11.7708 19.8085 11.5696 19.7226 11.3983 19.5528L4.44825 12.6028C4.35725 12.5108 4.29108 12.4151 4.24975 12.3158C4.20825 12.2163 4.1875 12.1108 4.1875 11.9993C4.1875 11.8878 4.20825 11.7825 4.24975 11.6835C4.29108 11.5844 4.35725 11.4889 4.44825 11.3973L11.4042 4.44127C11.5801 4.27144 11.7815 4.18652 12.0085 4.18652C12.2353 4.18652 12.4337 4.27144 12.6037 4.44127C12.7736 4.61527 12.8585 4.81602 12.8585 5.04352C12.8585 5.27119 12.7736 5.47027 12.6037 5.64077L7.096 11.1483H19.2987C19.5429 11.1483 19.7469 11.2291 19.9108 11.3908C20.0746 11.5524 20.1565 11.7555 20.1565 12C20.1565 12.2445 20.0746 12.4476 19.9108 12.6093C19.7469 12.7709 19.5429 12.8518 19.2987 12.8518H7.096Z" fill="#02060A"/>
</svg>
