<svg width="24" height="24" viewBox="0 0 24 24" fill="none" xmlns="http://www.w3.org/2000/svg">
<path d="M16.9061 12.8517H4.70331C4.45865 12.8517 4.25556 12.7709 4.09406 12.6092C3.9324 12.4476 3.85156 12.2445 3.85156 12C3.85156 11.7555 3.9324 11.5524 4.09406 11.3907C4.25556 11.2291 4.45865 11.1482 4.70331 11.1482H16.9061L11.4043 5.64674C11.2343 5.47674 11.1482 5.27649 11.1461 5.04599C11.1437 4.81532 11.2276 4.61457 11.3978 4.44374C11.5681 4.27224 11.7689 4.18749 12.0001 4.18949C12.2312 4.19149 12.4325 4.2774 12.6038 4.44724L19.5538 11.3972C19.6448 11.4892 19.711 11.5849 19.7523 11.6842C19.7938 11.7837 19.8146 11.8892 19.8146 12.0007C19.8146 12.1122 19.7938 12.2175 19.7523 12.3165C19.711 12.4157 19.6448 12.5111 19.5538 12.6027L12.5978 19.5527C12.422 19.7266 12.2206 19.8135 11.9936 19.8135C11.7667 19.8135 11.5683 19.7261 11.3983 19.5512C11.2285 19.3811 11.1436 19.1823 11.1436 18.955C11.1436 18.7278 11.2285 18.5292 11.3983 18.3592L16.9061 12.8517Z" fill="#02060A"/>
</svg>
