<svg width="32" height="32" viewBox="0 0 32 32" fill="none" xmlns="http://www.w3.org/2000/svg">
<path d="M21.6006 9.9248C21.7649 9.9248 21.8669 9.97331 21.9473 10.0537C22.0275 10.134 22.0761 10.2355 22.0762 10.3994C22.0762 10.5636 22.0276 10.6657 21.9473 10.7461L16.6934 16L17.0469 16.3535L21.9473 21.2529C22.0276 21.3333 22.0761 21.4355 22.0762 21.5996C22.0762 21.7639 22.0277 21.8659 21.9473 21.9463C21.8669 22.0267 21.7649 22.0752 21.6006 22.0752C21.4364 22.0752 21.3343 22.0267 21.2539 21.9463L16.3545 17.0459L16.001 16.6924L10.7471 21.9463C10.6667 22.0266 10.5646 22.0752 10.4004 22.0752C10.2365 22.0751 10.135 22.0265 10.0547 21.9463C9.97428 21.8659 9.92578 21.7639 9.92578 21.5996C9.92582 21.4355 9.97432 21.3333 10.0547 21.2529L15.3076 16L14.9541 15.6465L10.0547 10.7461C9.97429 10.6657 9.92578 10.5637 9.92578 10.3994C9.92586 10.2354 9.97435 10.134 10.0547 10.0537C10.135 9.97337 10.2363 9.92488 10.4004 9.9248C10.5647 9.9248 10.6667 9.97331 10.7471 10.0537L15.6475 14.9531L16.001 15.3066L21.2539 10.0537C21.3343 9.97334 21.4364 9.92484 21.6006 9.9248Z" fill="white" stroke="#02060A"/>
</svg>
