<!-- Generated by IcoMoon.io -->
<svg version="1.1" xmlns="http://www.w3.org/2000/svg" width="98" height="32" viewBox="0 0 98 32">
<path d="M16.765 20.493c-0.039-0.077-0.069-0.137-0.1-0.196-0.379-0.728-1.293-1.2-2.104-1.088-0.697 0.096-1.277 0.675-1.481 1.493-0.22 0.882-0.061 1.732 0.256 2.558 0.517 1.348 1.336 2.5 2.345 3.52 0.698 0.705 1.254 0.693 1.941-0.024 0.954-0.996 1.727-2.115 2.264-3.39 0.316-0.751 0.549-1.525 0.585-2.346 0.026-0.593-0.051-1.165-0.389-1.674-0.429-0.647-1.134-0.837-1.828-0.496-0.431 0.212-0.772 0.529-1.042 0.922-0.154 0.225-0.289 0.464-0.448 0.722zM30.194 24.281c-0.016 1.111-0.266 2.17-0.778 3.153-0.868 1.669-2.124 2.962-3.806 3.829-1.658 0.855-3.356 0.952-5.092 0.272-0.705-0.276-1.407-0.562-2.094-0.878-1.248-0.576-2.491-0.57-3.768-0.092-0.897 0.336-1.806 0.642-2.726 0.908-0.952 0.276-1.932 0.376-2.926 0.263-0.859-0.098-1.584-0.478-2.213-1.054-0.802-0.734-1.443-1.591-1.848-2.602-0.519-1.295-0.394-2.545 0.361-3.726 0.591-0.924 1.39-1.662 2.163-2.424 0.562-0.554 1.113-1.124 1.631-1.719 0.598-0.687 0.954-1.517 1.25-2.369 0.275-0.791 0.524-1.59 0.795-2.382 0.196-0.572 0.555-1.048 0.91-1.531 0.854-1.161 2.073-1.669 3.419-1.968 1.595-0.355 2.986 0.103 4.172 1.152 0.73 0.646 1.362 1.402 2.041 2.105 1.157 1.198 2.385 2.316 3.76 3.261 0.685 0.47 1.403 0.892 2.082 1.37 0.971 0.684 1.791 1.514 2.291 2.615 0.262 0.577 0.365 1.188 0.374 1.819z"></path>
<path d="M14.531 7.806c0.003 0.889-0.155 1.85-0.576 2.752-0.451 0.965-1.104 1.729-2.177 2.026-0.883 0.245-1.698 0.048-2.458-0.427-1-0.624-1.676-1.53-2.179-2.572-0.73-1.513-1.012-3.114-0.862-4.788 0.088-0.988 0.368-1.912 0.92-2.752 0.952-1.449 2.664-1.859 4.152-0.977 0.966 0.572 1.642 1.407 2.156 2.383 0.701 1.33 1.035 2.752 1.023 4.356z"></path>
<path d="M24.924 5.156c0.002 1.812-0.333 3.333-1.157 4.724-0.461 0.778-1.050 1.44-1.865 1.866-1.191 0.623-2.503 0.395-3.438-0.579-0.74-0.771-1.142-1.709-1.357-2.735-0.372-1.775-0.18-3.509 0.449-5.195 0.304-0.816 0.749-1.563 1.387-2.166 0.589-0.555 1.259-0.99 2.095-1.060 1.063-0.088 1.898 0.362 2.565 1.159 0.688 0.821 1.031 1.794 1.202 2.833 0.073 0.448 0.096 0.904 0.121 1.153z"></path>
<path d="M0 13.892c0.015-0.809 0.169-1.57 0.65-2.23 0.629-0.863 1.509-1.181 2.549-1.116 1.052 0.066 1.948 0.521 2.753 1.162 1.433 1.142 2.38 2.601 2.757 4.405 0.167 0.798 0.179 1.604-0.1 2.382-0.48 1.337-1.575 2.027-3.003 1.917-0.888-0.069-1.67-0.424-2.387-0.929-1.546-1.090-2.541-2.571-3.045-4.382-0.108-0.389-0.119-0.805-0.174-1.208z"></path>
<path d="M32.527 11.367c-0.24 2.514-1.262 4.457-3.246 5.857-0.551 0.389-1.17 0.614-1.847 0.682-1.144 0.116-2.184-0.528-2.615-1.63-0.378-0.969-0.356-1.96-0.118-2.947 0.458-1.899 1.478-3.433 3.082-4.557 0.71-0.498 1.516-0.701 2.382-0.629 1.007 0.084 1.858 0.84 2.153 1.951 0.119 0.449 0.153 0.921 0.208 1.273z"></path>
<path d="M79.681 19.706h2.314l-3.051 3.692 3.32 4.009h-2.383l-3.148-3.905v3.905h-2.101v-7.701h2.101v3.74l2.948-3.74z"></path>
<path d="M73.179 23.542c0 0.643-0.087 1.212-0.262 1.708-0.17 0.496-0.42 0.916-0.751 1.26-0.326 0.34-0.721 0.597-1.185 0.771-0.459 0.174-0.978 0.262-1.557 0.262-0.542 0-1.040-0.087-1.495-0.262-0.45-0.174-0.842-0.432-1.178-0.771-0.33-0.344-0.588-0.765-0.771-1.26-0.179-0.496-0.269-1.065-0.269-1.708 0-0.854 0.151-1.577 0.455-2.17s0.735-1.042 1.295-1.35 1.228-0.462 2.004-0.462c0.721 0 1.359 0.154 1.915 0.462 0.56 0.308 0.999 0.758 1.316 1.35 0.322 0.592 0.482 1.316 0.482 2.17zM67.854 23.542c0 0.505 0.055 0.93 0.166 1.274s0.282 0.604 0.517 0.778c0.234 0.174 0.539 0.262 0.916 0.262 0.372 0 0.673-0.087 0.902-0.262 0.234-0.174 0.404-0.434 0.51-0.778 0.11-0.344 0.166-0.769 0.166-1.274 0-0.51-0.055-0.932-0.166-1.267-0.105-0.34-0.275-0.595-0.51-0.765s-0.539-0.255-0.916-0.255c-0.556 0-0.96 0.191-1.212 0.572-0.248 0.381-0.372 0.953-0.372 1.715z"></path>
<path d="M64.259 19.706v7.701h-2.108v-6.123h-2.79v6.123h-2.101v-7.701h6.998z"></path>
<path d="M52.169 19.547c1.033 0 1.825 0.225 2.376 0.675s0.826 1.134 0.826 2.053v5.131h-1.467l-0.406-1.047h-0.055c-0.22 0.276-0.445 0.5-0.675 0.675s-0.494 0.303-0.792 0.386c-0.298 0.083-0.661 0.124-1.088 0.124-0.455 0-0.863-0.087-1.226-0.262-0.358-0.174-0.641-0.441-0.847-0.799-0.207-0.363-0.31-0.822-0.31-1.378 0-0.817 0.287-1.419 0.861-1.805 0.574-0.39 1.435-0.606 2.583-0.647l1.336-0.041v-0.337c0-0.404-0.105-0.7-0.317-0.889s-0.505-0.282-0.882-0.282c-0.372 0-0.737 0.053-1.095 0.158s-0.716 0.239-1.075 0.399l-0.696-1.419c0.408-0.216 0.865-0.386 1.37-0.51 0.51-0.124 1.035-0.186 1.577-0.186zM53.285 23.838l-0.813 0.028c-0.679 0.018-1.153 0.14-1.419 0.365-0.262 0.225-0.393 0.521-0.393 0.889 0 0.321 0.094 0.551 0.282 0.689 0.188 0.133 0.434 0.2 0.737 0.2 0.45 0 0.829-0.133 1.137-0.399 0.312-0.266 0.468-0.645 0.468-1.137v-0.634z"></path>
<path d="M46.921 27.406h-2.128v-8.293h-2.466c-0.055 0.432-0.115 0.902-0.179 1.412s-0.131 1.024-0.2 1.543c-0.069 0.519-0.142 1.012-0.22 1.481-0.073 0.468-0.147 0.879-0.22 1.233-0.12 0.588-0.282 1.088-0.489 1.502-0.202 0.409-0.48 0.721-0.833 0.937-0.349 0.216-0.806 0.324-1.371 0.324-0.188 0-0.37-0.014-0.544-0.041-0.17-0.028-0.328-0.064-0.475-0.11v-1.75c0.12 0.041 0.239 0.076 0.358 0.103 0.12 0.023 0.25 0.034 0.392 0.034 0.184 0 0.335-0.060 0.455-0.179 0.124-0.124 0.234-0.333 0.33-0.627 0.096-0.298 0.193-0.709 0.289-1.233 0.041-0.23 0.096-0.553 0.165-0.971 0.069-0.422 0.147-0.916 0.234-1.481 0.087-0.569 0.177-1.189 0.269-1.86 0.096-0.67 0.188-1.368 0.276-2.094h6.357v10.070z"></path>
<path d="M94.235 6.651c1.033 0 1.825 0.225 2.376 0.675s0.827 1.134 0.827 2.053v5.131h-1.467l-0.407-1.047h-0.055c-0.22 0.276-0.445 0.501-0.675 0.675s-0.494 0.303-0.792 0.386c-0.298 0.083-0.661 0.124-1.088 0.124-0.455 0-0.863-0.087-1.226-0.262-0.358-0.175-0.641-0.441-0.847-0.799-0.207-0.363-0.31-0.822-0.31-1.378 0-0.817 0.287-1.419 0.861-1.805 0.574-0.39 1.435-0.606 2.583-0.647l1.336-0.041v-0.338c0-0.404-0.105-0.7-0.317-0.889s-0.505-0.282-0.882-0.282c-0.372 0-0.737 0.053-1.095 0.158s-0.716 0.239-1.075 0.399l-0.695-1.419c0.409-0.216 0.866-0.386 1.37-0.51 0.51-0.124 1.036-0.186 1.577-0.186zM95.351 10.942l-0.813 0.028c-0.68 0.018-1.153 0.14-1.419 0.365-0.262 0.225-0.393 0.521-0.393 0.889 0 0.321 0.094 0.551 0.282 0.689 0.188 0.133 0.434 0.2 0.737 0.2 0.45 0 0.829-0.133 1.137-0.399 0.312-0.266 0.468-0.645 0.468-1.136v-0.634z"></path>
<path d="M87.678 6.809h2.314l-3.051 3.692 3.32 4.009h-2.383l-3.148-3.905v3.905h-2.101v-7.701h2.101v3.74l2.948-3.74z"></path>
<path d="M75.672 6.809v2.962h2.934v-2.962h2.101v7.701h-2.101v-3.175h-2.934v3.175h-2.101v-7.701h2.101z"></path>
<path d="M65.719 6.809v3.044c0 0.156-0.007 0.354-0.021 0.592-0.009 0.234-0.023 0.473-0.041 0.716s-0.037 0.461-0.055 0.654c-0.018 0.193-0.032 0.324-0.041 0.393l3.554-5.4h2.528v7.701h-2.032v-3.072c0-0.253 0.009-0.53 0.027-0.833 0.018-0.308 0.039-0.597 0.062-0.868s0.039-0.475 0.048-0.613l-3.541 5.386h-2.521v-7.701h2.032z"></path>
<path d="M62.53 8.386h-2.521v6.123h-2.101v-6.123h-2.528v-1.577h7.149v1.577z"></path>
<path d="M51.069 6.651c1.033 0 1.825 0.225 2.376 0.675s0.826 1.134 0.826 2.053v5.131h-1.467l-0.406-1.047h-0.055c-0.22 0.276-0.445 0.501-0.675 0.675s-0.494 0.303-0.792 0.386c-0.298 0.083-0.661 0.124-1.088 0.124-0.455 0-0.863-0.087-1.226-0.262-0.358-0.175-0.641-0.441-0.847-0.799-0.207-0.363-0.31-0.822-0.31-1.378 0-0.817 0.287-1.419 0.861-1.805 0.574-0.39 1.435-0.606 2.583-0.647l1.336-0.041v-0.338c0-0.404-0.106-0.7-0.317-0.889s-0.505-0.282-0.882-0.282c-0.372 0-0.737 0.053-1.095 0.158s-0.716 0.239-1.075 0.399l-0.696-1.419c0.408-0.216 0.865-0.386 1.37-0.51 0.51-0.124 1.035-0.186 1.577-0.186zM52.184 10.942l-0.813 0.028c-0.679 0.018-1.153 0.14-1.419 0.365-0.262 0.225-0.393 0.521-0.393 0.889 0 0.321 0.094 0.551 0.282 0.689 0.188 0.133 0.434 0.2 0.737 0.2 0.45 0 0.829-0.133 1.137-0.399 0.312-0.266 0.468-0.645 0.468-1.136v-0.634z"></path>
<path d="M47.094 14.51h-2.438l-2.342-3.809-2.342 3.809h-2.287l3.341-5.193-3.127-4.877h2.356l2.17 3.623 2.128-3.623h2.3l-3.161 4.994 3.402 5.076z"></path>
</svg>
